<svg xmlns="http://www.w3.org/2000/svg" width="0" height="0">
    <defs>
        <clipPath id="clipping-bg" clipPathUnits="objectBoundingBox">
            <path
                d="M 0.28539032,0 C 0.20856042,0 0.13618507,0.02954977 0.08273516,0.08184516 0.02909493,0.13430016 -2.1936396e-4,0.2035911 1.2360394e-6,0.27695752 c 0,0.0733983 0.029509283961,0.14261462 0.083124553961,0.19504522 l 0.38187296,0.37323805 c 0.008513,0.008706 0.0209904,0.0139069 0.0342186,0.0141667 h 3.92e-4 3.1199e-4 c 0.013206,-1.2183e-4 0.0257085,-0.005211 0.0342967,-0.0138311 h 8.001e-5 L 0.91703042,0.47274133 C 0.97072638,0.42031357 0.99999876,0.35096589 0.99999876,0.27756179 1.0002187,0.2041898 0.97120508,0.13485798 0.91749917,0.08238228 0.86384458,0.02991327 0.79146213,6.0431e-4 0.71460958,6.0431e-4 c -0.0769496,0 -0.14936308,0.02959359 -0.2030458,0.08204652 l -0.0111718,0.010944 -0.0116405,-0.0113468 C 0.43506264,0.0297891 0.36234838,0 0.28539312,0 Z" />
        </clipPath>
        <clipPath id="clipping-stroke" clipPathUnits="objectBoundingBox">
            <path
                d="m 0.28515625,-0.00195313 c -0.0756274,0 -0.14768014,0.02969487 -0.20117188,0.08203125 -0.05368198,0.05249538 -0.0822552,0.12288972 -0.08203124,0.19726563 0,0.0744067 0.03032764,0.14479495 0.08398437,0.19726563 l 0.38085938,0.37304687 c 0.008595,0.00879 0.0211395,0.0134348 0.0332031,0.0136719 0.0120586,-1.1097e-4 0.0225896,-0.004952 0.03125,-0.0136719 L 0.9140625,0.47460938 C 0.96779865,0.4221424 0.99804687,0.3517486 0.99804688,0.27734375 0.99826969,0.20297002 0.96976236,0.13259375 0.91601563,0.08007812 0.86231969,0.02756859 0.79050607,0 0.71484375,0 0.63909565,0 0.56739516,0.02758545 0.51367187,0.08007812 L 0.5,0.09375 0.48632813,0.08007812 C 0.43259867,0.02757948 0.36090071,-0.00195313 0.28515625,-0.00195313 Z m 0,0.03710938 c 0.0662515,0 0.12892021,0.02647805 0.17578125,0.07226562 L 0.5,0.14648437 0.5390625,0.10742187 c 0.0468672,-0.0457936 0.10945049,-0.0703125 0.17578125,-0.0703125 0.0663329,0 0.12701716,0.02453582 0.17382813,0.0703125 0.0468436,0.0457706 0.0724589,0.10540353 0.0722656,0.16992188 0,0.064559 -0.0254115,0.12417435 -0.0722656,0.16992188 L 0.50585937,0.8203125 v 0.001953 c -0.001032,0.001039 -0.00299,0.001927 -0.005859,0.001953 -0.002925,-5.747e-5 -0.00481,-0.002833 -0.005859,-0.003906 L 0.11132812,0.44726563 C 0.06447695,0.40145008 0.0390625,0.3418291 0.0390625,0.27734375 0.03886845,0.21289931 0.06450221,0.15321273 0.11132812,0.10742187 0.15792583,0.06183061 0.21895515,0.03515625 0.28515625,0.03515625 Z" />
        </clipPath>
    </defs>
</svg>