<svg xmlns="http://www.w3.org/2000/svg" xmlns:xlink="http://www.w3.org/1999/xlink" viewBox="0 0 24 24">
  <defs>
    <linearGradient id="a">
      <stop offset="0" stop-color="#ff79da"/>
      <stop offset="1" stop-color="#9356dc"/>
    </linearGradient>
    <linearGradient id="b" x1="11.507" x2="11.507" y1="2.856" y2="22.889" gradientTransform="translate(.5 .5)" gradientUnits="userSpaceOnUse" xlink:href="#a"/>
  </defs>
  <path fill="url(#b)" stroke="#000" stroke-linejoin="round" d="M21.642 2.635c-1.204-1.37-2.799-2.118-4.5-2.118-1.702 0-3.301.754-4.506 2.124l-.629.715-.638-.726C10.164 1.26 8.56.5 6.859.5c-1.699 0-3.298.754-4.497 2.119C1.158 3.989.495 5.808.5 7.743c0 1.936.668 3.75 1.872 5.12l9.157 10.415a.625.625 0 00.464.222.619.619 0 00.463-.216l9.176-10.4C22.837 11.515 23.5 9.697 23.5 7.76c.005-1.936-.653-3.755-1.858-5.125z"/>
</svg>